<svg width="328" height="320" xmlns="http://www.w3.org/2000/svg" xmlns:xlink="http://www.w3.org/1999/xlink" overflow="hidden"><defs><clipPath id="clip0"><rect x="53" y="27" width="328" height="320"/></clipPath><clipPath id="clip1"><rect x="54" y="27" width="326" height="319"/></clipPath><clipPath id="clip2"><rect x="63" y="27" width="317" height="318"/></clipPath><clipPath id="clip3"><rect x="63" y="27" width="317" height="318"/></clipPath></defs><g clip-path="url(#clip0)" transform="translate(-53 -27)"><g clip-path="url(#clip1)"><g clip-path="url(#clip2)"><g clip-path="url(#clip3)"><path d="M158.346 0C70.2945 0.210148 0 71.3452 0 158.241 0 245.032 69.9793 316.273 157.611 316.588 246.714 316.903 317.323 244.192 316.483 156.77 315.747 71.4503 246.609 0.315222 158.346 0ZM305.45 149.415C305.45 152.252 303.243 154.564 300.406 154.564 297.675 154.564 295.363 152.252 295.363 149.415 295.363 146.578 297.675 144.372 300.406 144.372 303.243 144.372 305.45 146.578 305.45 149.415ZM303.454 133.024C303.454 135.756 301.037 138.067 298.305 138.067 295.573 138.067 293.367 135.756 293.367 133.024 293.367 130.292 295.678 127.98 298.41 127.98 301.247 127.875 303.559 130.187 303.454 133.024ZM299.566 116.842C299.776 119.364 297.464 121.991 294.522 121.886 291.79 121.781 289.584 119.679 289.584 116.842 289.584 114.005 291.895 111.694 294.627 111.799 297.359 111.799 299.566 114.005 299.566 116.842ZM293.892 101.291C293.892 104.233 291.685 106.335 288.848 106.335 286.116 106.335 283.91 104.128 283.805 101.396 283.7 98.5594 286.011 96.2477 288.743 96.2477 291.16 96.2477 293.787 97.9289 293.892 101.291ZM287.167 158.346C287.167 230.322 228.431 287.272 158.136 287.272 87.9469 287.167 28.5801 230.112 29.3156 156.77 30.1562 85.3201 88.5774 29.1055 158.346 29.4207 228.641 29.2106 287.167 86.4759 287.167 158.346ZM281.283 81.5374C284.12 81.5374 286.327 83.7439 286.327 86.5809 286.327 89.3129 284.12 91.6245 281.388 91.6245 278.551 91.6245 276.345 89.3129 276.345 86.4759 276.345 83.6389 278.551 81.5374 281.283 81.5374ZM272.142 67.6676C274.874 67.6676 277.08 69.8742 277.185 72.6061 277.29 75.338 274.979 77.6497 272.142 77.7547 269.305 77.7547 267.098 75.5482 267.098 72.7112 267.098 69.8742 269.305 67.6676 272.142 67.6676ZM261.529 55.0588C264.261 55.1638 266.468 57.3704 266.468 60.1023 266.468 62.8342 264.051 65.2509 261.319 65.1459 258.587 65.1459 256.275 62.8342 256.275 59.9972 256.38 57.1602 258.797 54.9537 261.529 55.0588ZM249.341 43.7108C251.862 43.7108 254.489 45.8122 254.384 48.8594 254.594 51.0659 252.598 53.7979 249.446 53.7979 246.083 53.7979 244.297 50.9609 244.402 48.6492 244.507 45.9173 246.504 43.7108 249.341 43.7108ZM236.206 33.8338C238.938 33.9389 241.145 36.2505 241.04 39.0875 240.935 41.8194 238.518 44.1311 235.786 43.9209 232.949 43.7108 230.953 41.5042 230.953 38.7723 230.953 36.0404 233.369 33.7287 236.206 33.8338ZM221.601 25.638C224.333 25.638 226.539 27.8446 226.539 30.6816 226.539 33.5186 224.333 35.7251 221.496 35.7251 218.764 35.7251 216.557 33.5186 216.452 30.7867 216.557 27.9497 218.869 25.638 221.601 25.638ZM206.26 19.1235C208.992 19.1235 211.409 21.4351 211.409 24.167 211.409 26.8989 209.097 29.2106 206.365 29.2106 203.633 29.2106 201.427 27.004 201.322 24.2721 201.217 21.5402 203.528 19.1235 206.26 19.1235ZM190.394 14.5002C193.231 14.5002 195.543 16.7068 195.543 19.5438 195.543 22.2757 193.231 24.6924 190.499 24.5873 187.767 24.5873 185.456 22.4858 185.456 19.5438 185.35 16.8118 187.662 14.5002 190.394 14.5002ZM174.108 11.6632C176.945 11.6632 179.151 13.9748 179.151 16.7068 179.151 19.4387 176.945 21.6452 174.213 21.6452 171.376 21.6452 169.064 19.4387 169.064 16.6017 169.064 13.9748 171.271 11.6632 174.108 11.6632ZM157.506 10.8226C160.238 10.8226 162.549 13.0292 162.654 15.8662 162.654 18.7032 160.448 21.0148 157.611 20.9097 155.194 20.9097 152.672 19.1235 152.567 15.7611 152.462 13.0292 154.774 10.8226 157.506 10.8226ZM141.43 11.7683C144.161 11.7683 146.473 14.0799 146.473 16.9169 146.473 19.7539 144.161 21.9605 141.324 21.8554 138.593 21.8554 136.386 19.5438 136.386 16.8118 136.386 14.0799 138.698 11.7683 141.43 11.7683ZM125.143 14.7104C127.98 14.7104 130.187 17.022 130.187 19.7539 130.187 22.4858 127.77 24.7975 125.038 24.7975 122.306 24.6924 120.1 22.4858 120.1 19.7539 120.1 16.9169 122.306 14.7104 125.143 14.7104ZM109.277 19.4387C112.114 19.4387 114.32 21.7503 114.32 24.5873 114.32 27.3192 112.114 29.5258 109.277 29.5258 106.44 29.5258 104.233 27.3192 104.233 24.3772 104.338 21.7503 106.545 19.4387 109.277 19.4387ZM94.1463 26.0583C96.9833 26.0583 99.1898 28.37 99.1898 31.207 99.1898 33.9389 96.8782 36.1454 94.2513 36.2505 91.5194 36.2505 89.2078 33.9389 89.2078 31.207 88.9976 28.2649 91.3093 26.0583 94.1463 26.0583ZM79.7511 34.3592C83.0084 34.3592 85.0048 37.1962 84.7947 39.5078 84.7947 42.2397 82.4831 44.5514 79.8562 44.5514 77.0192 44.5514 74.8127 42.2397 74.8127 39.4027 74.7076 36.5657 76.9141 34.3592 79.7511 34.3592ZM66.4067 44.3412C69.2437 44.3412 71.4503 46.5478 71.4503 49.3848 71.4503 52.2218 69.1387 54.4283 66.4067 54.4283 64.0951 54.4283 61.5733 52.7471 61.3632 49.4898 61.2581 46.6528 63.6748 44.3412 66.4067 44.3412ZM54.4283 55.6892C57.2653 55.6892 59.4719 58.0008 59.4719 60.8378 59.4719 63.5697 57.1602 65.7763 54.4283 65.7763 51.9065 65.7763 49.4898 63.99 49.2797 60.7327 49.2797 58.0008 51.6964 55.6892 54.4283 55.6892ZM43.8158 68.4032C46.5478 68.4032 48.7543 70.6097 48.8594 73.3416 48.9645 76.0736 46.6528 78.3852 43.8158 78.4902 40.9788 78.4902 38.7723 76.2837 38.7723 73.4467 38.7723 70.7148 40.9788 68.4032 43.8158 68.4032ZM34.6744 82.378C37.5114 82.378 39.718 84.5845 39.718 87.4215 39.718 90.2585 37.5114 92.4651 34.6744 92.4651 31.8374 92.4651 29.5258 90.1535 29.6309 87.4215 29.7359 84.2693 32.0476 82.2729 34.6744 82.378ZM27.5294 97.0883C30.3664 97.1934 32.4679 99.505 32.3628 102.342 32.2577 105.074 29.9461 107.175 27.2142 107.175 24.3772 107.07 22.1706 104.759 22.2757 102.027 22.3808 99.1898 24.6924 96.9833 27.5294 97.0883ZM21.5402 112.639C24.2721 112.534 26.6888 114.951 26.6888 117.683 26.6888 120.415 24.3772 122.726 21.6452 122.726 18.8082 122.726 16.6017 120.415 16.6017 117.683 16.6017 115.056 18.9133 112.744 21.5402 112.639ZM17.8626 128.821C20.6996 128.821 22.9061 131.027 22.9061 133.864 22.9061 136.596 20.6996 138.908 17.9676 138.908 15.2357 138.908 13.0292 136.701 12.9241 133.864 12.819 131.658 14.7104 128.926 17.8626 128.821ZM16.0763 145.317C18.8082 145.317 21.1199 147.629 21.0148 150.466 21.0148 153.303 18.7032 155.509 15.8662 155.509 13.1342 155.404 10.9277 153.198 10.9277 150.466 10.9277 147.629 13.2393 145.317 16.0763 145.317ZM11.0328 166.963C11.0328 164.126 13.2393 161.919 16.0763 161.919 18.8082 161.919 21.0148 164.126 21.0148 166.963 21.0148 169.8 18.7032 172.111 15.9712 172.006 13.2393 172.006 11.0328 169.694 11.0328 166.963ZM12.9241 183.354C12.9241 180.517 15.1307 178.311 17.9676 178.311 20.8046 178.311 23.0112 180.622 23.0112 183.354 23.0112 186.191 20.6996 188.293 17.8626 188.293 15.1307 188.398 13.0292 186.191 12.9241 183.354ZM16.9169 199.43C16.9169 196.593 19.1235 194.492 21.8554 194.492 24.4822 194.387 27.1091 196.804 26.8989 199.535 26.8989 202.372 24.6924 204.474 21.9605 204.474 19.0184 204.579 16.9169 202.372 16.9169 199.43ZM22.5909 214.981C22.5909 212.144 24.9025 210.043 27.7395 210.043 30.4714 210.043 32.678 212.249 32.678 215.086 32.678 217.923 30.4714 220.13 27.5294 220.025 24.6924 220.025 22.4858 217.818 22.5909 214.981ZM35.0947 234.84C32.3628 234.84 30.0512 232.634 30.0512 229.902 30.0512 227.065 32.2577 224.858 35.0947 224.858 37.9317 224.858 40.1383 227.065 40.1383 230.007 40.0332 232.739 37.8266 234.84 35.0947 234.84ZM44.2361 248.71C41.3991 248.71 39.1926 246.504 39.1926 243.667 39.1926 240.83 41.3991 238.623 44.3412 238.728 47.0731 238.728 49.2797 240.935 49.3848 243.667 49.2797 246.504 47.0731 248.71 44.2361 248.71ZM54.9537 261.424C52.1167 261.424 49.9101 259.217 49.9101 256.38 49.9101 253.543 52.2218 251.337 55.0588 251.337 57.5805 251.337 60.1023 253.333 60.1023 256.486 59.9972 259.217 57.6856 261.424 54.9537 261.424ZM66.9321 272.667C64.0951 272.667 61.8886 270.355 61.8886 267.623 61.8886 264.786 64.2002 262.685 67.0372 262.685 69.7691 262.685 71.9757 264.891 71.9757 267.623 72.0807 270.46 69.7691 272.667 66.9321 272.667ZM80.1714 282.544C77.4395 282.544 75.233 280.232 75.338 277.5 75.338 274.663 77.6497 272.562 80.5917 272.562 83.4287 272.667 85.4251 274.768 85.4251 277.605 85.3201 280.547 83.1135 282.649 80.1714 282.544ZM94.6716 290.845C91.9397 290.845 89.6281 288.533 89.6281 285.801 89.6281 283.069 91.9397 280.758 94.5666 280.758 97.9289 280.758 99.7152 283.384 99.7152 285.801 99.8203 288.533 97.5086 290.845 94.6716 290.845ZM109.907 297.359C107.07 297.359 104.969 295.258 104.864 292.421 104.864 289.584 106.965 287.377 109.907 287.377 112.639 287.377 114.951 289.584 114.951 292.316 115.056 295.048 112.744 297.359 109.907 297.359ZM125.774 302.088C122.621 301.878 120.835 299.671 120.73 296.939 120.73 294.207 123.042 292.001 125.774 292.001 128.611 292.001 130.817 294.207 130.817 297.044 130.817 299.881 128.505 302.193 125.774 302.088ZM142.165 304.925C139.328 304.925 137.016 302.613 137.016 299.881 137.016 297.149 139.328 294.838 142.165 294.838 145.002 294.838 147.209 297.044 147.104 299.881 147.209 302.718 145.002 304.82 142.165 304.925ZM158.662 305.765C155.93 305.765 153.723 303.454 153.723 300.722 153.723 297.99 155.93 295.678 158.767 295.678 161.604 295.678 163.81 297.99 163.81 300.722 163.705 303.559 161.394 305.87 158.662 305.765ZM175.263 304.715C172.426 304.715 170.22 302.508 170.22 299.671 170.22 296.939 172.426 294.732 175.158 294.732 177.995 294.732 180.307 296.939 180.307 299.671 180.412 302.508 178.1 304.715 175.263 304.715ZM191.445 301.878C188.713 301.878 186.506 299.566 186.506 296.834 186.506 293.997 188.713 291.79 191.55 291.79 194.282 291.79 196.593 294.102 196.593 296.834 196.593 299.671 194.282 301.878 191.445 301.878ZM207.416 297.044C204.579 297.044 202.478 294.838 202.478 292.001 202.478 289.164 204.789 286.957 207.521 286.957 210.358 287.062 212.46 289.269 212.46 292.106 212.354 294.943 210.148 297.044 207.416 297.044ZM222.547 290.424C219.815 290.424 217.608 288.113 217.608 285.381 217.608 282.544 219.815 280.337 222.652 280.337 225.489 280.337 227.8 282.649 227.695 285.381 227.59 288.743 224.963 290.424 222.547 290.424ZM236.942 282.124C234.105 282.019 232.003 280.022 231.898 276.975 231.898 274.243 234.21 272.036 236.837 272.036 239.674 272.036 241.88 274.243 241.88 277.08 241.985 279.812 239.674 282.229 236.942 282.124ZM250.181 272.036C247.344 272.036 245.243 269.83 245.243 266.993 245.243 264.156 247.449 261.949 250.391 262.054 253.228 262.054 255.33 264.261 255.33 267.098 255.225 270.04 253.018 272.142 250.181 272.036ZM262.054 260.689C259.323 260.689 257.221 258.482 257.221 255.645 257.221 252.808 259.428 250.706 262.16 250.706 264.997 250.706 267.203 252.913 267.203 255.855 267.203 258.587 264.997 260.794 262.054 260.689ZM272.877 247.975C270.04 247.975 267.834 245.663 267.834 242.931 267.834 240.094 270.145 237.887 272.982 237.887 275.819 237.887 278.026 240.199 277.921 243.036 277.816 245.768 275.609 247.975 272.877 247.975ZM282.019 234.105C279.287 234.105 276.87 231.898 276.87 229.061 276.87 226.329 279.182 224.018 281.913 224.018 284.75 224.018 286.957 226.224 286.957 229.061 286.957 231.793 284.75 234.105 282.019 234.105ZM289.269 219.289C286.537 219.289 284.225 216.978 284.225 214.246 284.33 210.883 286.852 209.202 289.269 209.202 292.106 209.202 294.312 211.409 294.312 214.246 294.312 217.083 292.001 219.289 289.269 219.289ZM294.943 203.633C292.106 203.633 289.899 201.427 289.899 198.59 289.899 195.753 292.106 193.651 294.838 193.651 297.675 193.651 299.881 195.858 299.881 198.695 299.881 201.427 297.675 203.633 294.943 203.633ZM303.769 182.513C303.559 185.876 300.932 187.557 298.62 187.452 295.888 187.347 293.682 185.14 293.682 182.408 293.682 179.571 295.993 177.365 298.83 177.47 301.457 177.47 303.874 179.887 303.769 182.513ZM300.512 171.06C297.78 171.06 295.468 168.749 295.468 165.912 295.468 163.075 297.78 160.868 300.617 160.973 303.349 160.973 305.66 163.285 305.555 166.017 305.45 169.169 303.033 171.06 300.512 171.06Z" fill="#F2F2F2" transform="matrix(1 0 0 1.00277 63.4647 27.181)"/><path d="M158.346 34.8846C91.6245 34.7795 36.2505 88.1571 34.8846 155.615 33.4135 226.539 90.6788 281.598 158.136 281.703 225.594 281.808 281.598 227.065 281.703 158.452 281.703 89.9433 226.014 34.7795 158.346 34.8846ZM247.764 91.9397C248.185 90.7839 248.5 89.523 248.71 88.2621 248.815 87.7368 248.815 87.3165 249.13 86.7911 280.863 125.458 283.7 186.611 249.13 229.902 248.815 228.431 248.5 227.065 248.185 225.699 248.08 225.279 247.869 224.858 247.764 224.438 247.449 223.808 246.924 223.282 246.293 223.177 244.927 222.967 243.772 223.492 242.931 224.543 242.09 225.489 242.09 226.539 242.721 227.695 242.931 228.01 243.141 228.326 243.351 228.641 244.297 230.217 243.982 231.268 242.301 232.319 241.88 232.108 241.985 231.688 241.775 231.268 241.355 229.902 240.514 228.746 239.464 227.695 239.253 227.485 239.043 227.38 238.833 227.275 237.047 226.119 231.898 226.855 230.742 229.376 230.007 231.058 229.482 232.844 229.587 234.735 229.692 236.521 230.742 237.677 232.108 238.623 232.949 239.253 233.895 239.674 234.735 240.094 234.21 241.46 233.474 241.88 232.003 241.67 230.953 241.565 229.902 241.355 228.851 241.04 227.485 240.724 226.96 240.83 226.329 241.88 225.699 242.826 225.804 243.982 226.645 244.822 227.905 245.978 229.482 246.504 231.058 246.714 231.478 246.819 231.898 246.609 232.213 246.819 229.271 251.232 209.517 262.685 197.644 266.993 184.93 271.616 171.691 273.928 158.241 273.928 144.687 273.928 131.448 271.616 118.629 266.993 106.545 262.58 88.1571 251.862 84.0592 246.714 85.3201 246.714 86.5809 246.504 87.6317 246.083 88.4723 245.768 89.2078 245.348 89.8382 244.717 90.6788 243.772 90.7839 242.721 90.0484 241.775 89.4179 240.935 88.9976 240.724 87.9469 240.935 86.8962 241.25 85.7404 241.46 84.6896 241.565 83.849 241.67 82.9034 241.565 82.1678 241.04 81.5374 240.514 81.6425 240.094 82.378 239.674 82.6932 239.464 83.0084 239.358 83.3237 239.148 87.3165 236.837 88.052 231.688 85.0048 228.221 84.4795 227.695 83.849 227.38 83.2186 227.17 78.8055 225.699 76.5989 226.75 74.8127 231.373 74.7076 231.688 74.8127 232.213 74.2873 232.213 73.867 232.213 73.6568 231.898 73.4467 231.688 72.8163 230.848 72.6061 229.902 73.0264 228.956 73.2365 228.641 73.4467 228.221 73.6568 227.905 75.0228 226.119 73.9721 224.648 72.8163 223.808 71.2402 222.757 69.2437 222.442 68.4032 225.279 68.0879 226.434 67.8778 227.59 67.6676 228.746 67.5626 229.061 67.6676 229.482 67.1423 229.902 50.5406 208.467 42.1347 184.195 42.4499 157.086 42.66 130.922 51.171 107.491 67.3524 86.4759 67.5626 87.7368 67.7727 88.6824 67.9828 89.523 68.193 90.4687 68.4032 91.3093 68.8234 92.1499 69.3488 93.2006 70.1894 93.5158 71.3452 93.3057 72.2909 93.0955 73.0264 92.6752 73.6568 91.9397 74.4974 90.994 74.4974 90.0484 73.9721 88.9976 73.7619 88.5774 73.4467 88.1571 73.1315 87.7368 72.6061 86.8962 72.7112 85.9505 73.2365 85.1099 73.4467 84.6896 73.867 84.2693 74.2873 84.2693 74.8127 84.2693 74.6025 84.8998 74.8127 85.3201 75.338 86.686 76.0736 87.8418 77.1243 88.8926 77.3344 89.1027 77.5446 89.2078 77.7547 89.3129 79.4359 90.5738 84.6896 89.6281 85.7404 87.3165 86.686 85.3201 87.1063 83.3237 86.7911 81.2222 86.5809 80.0664 85.8454 79.1207 85.0048 78.3852 84.2693 77.7547 83.3237 77.2294 82.378 76.704 81.6425 76.3888 81.5374 75.8634 82.1678 75.338 82.9034 74.7076 83.7439 74.6025 84.6896 74.7076 85.7404 74.9177 86.7911 75.0228 87.8418 75.338 88.7875 75.6533 89.4179 75.4431 89.9433 74.7076 90.4687 73.9721 90.6788 73.1315 90.2585 72.2909 89.9433 71.7655 89.523 71.3452 88.9976 70.9249 87.8418 70.1894 86.4759 69.7691 85.1099 69.664 84.7947 69.664 84.3744 69.559 83.9541 69.559 124.092 34.3592 189.343 32.4679 232.213 69.3488 231.793 69.7691 231.268 69.559 230.742 69.664 229.271 69.8742 227.8 70.3996 226.75 71.3452 225.699 72.2909 225.489 73.5518 226.329 74.6025 226.855 75.233 227.38 75.6533 228.326 75.338 229.376 75.0228 230.532 74.8127 231.583 74.6025 232.634 74.4974 233.684 74.6025 234.315 75.4431 234.63 75.8634 234.63 76.1786 234.105 76.3888 232.949 76.9141 231.898 77.5446 231.058 78.3852 230.007 79.4359 229.376 80.6968 229.376 82.1678 229.376 82.9034 229.482 83.6389 229.587 84.4795 230.427 88.2621 232.424 89.523 236.732 89.523 237.887 89.523 238.833 88.9976 239.674 88.052 240.724 86.7911 241.46 85.4251 241.775 83.849 243.667 84.8998 243.982 86.0556 243.036 87.6317 242.931 87.8418 242.826 87.9469 242.721 88.1571 241.985 89.1027 241.775 90.0484 242.406 91.2042 243.036 92.4651 244.192 93.0955 245.558 93.0955 246.609 93.4108 247.344 92.8854 247.764 91.9397Z" fill="#F2F2F2" transform="matrix(1 0 0 1.00277 63.4647 27.181)"/><path d="M239.674 104.969C239.043 104.969 238.833 104.759 238.728 104.128 238.623 102.972 238.518 101.817 238.308 100.661 238.098 99.505 237.257 98.9797 235.996 99.0848 235.261 99.1898 234.63 99.6101 234 99.9253 233.054 100.451 232.424 101.712 231.373 101.922 230.322 102.132 229.166 101.817 228.01 101.817 227.275 101.817 226.539 101.817 225.909 101.922 224.858 102.027 223.808 102.342 222.967 102.972 220.13 104.969 217.503 107.281 214.876 109.487 214.456 109.802 214.351 110.118 214.771 110.643 216.032 112.219 217.293 113.9 218.554 115.476 219.289 116.422 219.92 117.368 220.865 118.418 219.079 118.418 217.503 118.523 215.927 118.523 214.771 118.523 213.931 118.839 213.3 119.784 212.775 120.52 212.144 120.73 211.199 120.73 208.677 120.625 206.155 120.73 203.528 120.73 203.528 121.465 203.633 122.096 203.633 122.726 203.738 123.777 203.949 124.828 204.159 125.879 204.264 126.614 204.159 127.139 203.423 127.56 202.583 127.98 201.952 128.611 201.112 129.136 200.691 129.451 200.376 129.661 199.956 129.976 199.325 130.502 199.01 131.868 199.43 132.288 199.956 132.919 200.586 132.603 201.217 132.393 202.162 132.078 203.003 131.658 203.949 131.342 204.894 131.027 205.735 130.817 206.575 131.553 207.416 132.393 207.836 133.444 207.521 134.6 207.311 135.23 206.996 135.756 206.575 136.176 205.945 136.806 205.209 137.437 204.369 137.857 201.952 139.223 199.43 140.169 196.804 140.799 194.387 141.324 192.285 140.904 190.289 139.433 188.713 138.277 187.242 137.016 185.876 135.545 183.985 133.549 184.405 130.607 186.611 129.136 189.869 127.034 193.021 124.828 196.173 122.726 197.644 121.781 197.854 120.31 197.749 118.839 197.644 117.683 196.698 117.052 195.543 117.368 194.282 117.683 193.336 118.418 192.601 119.469 190.079 122.726 187.557 125.879 185.035 129.136 184.72 129.556 184.405 130.082 183.879 130.397 183.039 130.922 182.408 130.922 181.673 130.292 179.571 128.295 177.575 126.299 176.104 123.777 175.474 122.726 175.053 121.676 175.158 120.415 175.368 117.157 176.314 114.215 178.626 111.694 179.256 110.958 179.992 110.328 180.937 109.907 181.778 109.487 182.619 109.382 183.459 109.592 184.93 109.907 185.561 110.958 185.14 112.324 184.93 113.06 184.615 113.69 184.195 114.215 183.669 114.846 183.459 115.581 183.459 116.317 183.459 117.473 184.09 117.893 185.14 117.578 187.242 117.052 188.398 115.686 188.818 113.69 189.028 112.849 189.343 112.744 189.974 112.744 191.865 112.849 193.651 112.639 195.543 112.534 196.593 112.534 196.698 112.534 196.698 111.378 196.698 109.172 196.698 106.86 196.698 104.654 196.698 104.023 196.804 103.603 197.434 103.288 198.38 102.867 198.59 102.132 198.8 101.291 199.22 99.505 199.746 97.7188 200.166 96.0376 200.691 96.0376 200.901 96.3528 201.217 96.563 203.003 98.034 204.894 99.505 206.68 101.081 207.311 101.607 207.626 101.607 208.152 100.976 210.043 98.9797 212.039 96.9833 213.931 95.0919 214.876 94.1463 215.191 93.2006 215.086 91.9397 214.981 90.1535 214.876 88.4723 214.981 86.686 214.981 85.9505 215.191 85.4251 215.612 84.8998 216.768 83.5338 217.083 81.9577 216.873 80.2765 216.768 79.2258 216.768 79.1207 215.717 79.1207 214.876 79.1207 213.931 79.0156 213.09 79.1207 212.249 79.1207 211.934 78.8055 211.934 78.07 211.934 76.704 211.829 75.338 211.829 73.867 211.829 73.1315 211.619 72.9213 210.883 72.9213 208.992 72.9213 207.206 72.9213 205.315 72.9213 204.684 72.9213 204.474 72.7112 204.474 72.0807 204.474 70.6097 204.369 69.1387 204.264 67.6676 204.264 67.1423 204.159 66.827 203.528 66.827 199.325 66.827 194.597 68.4032 193.126 74.1822 192.601 76.3888 192.495 78.5953 192.811 80.907 193.021 82.5881 191.97 83.4287 190.289 83.2186 189.343 83.1135 188.713 82.5881 188.293 81.7476 187.977 81.1171 187.767 80.3816 187.662 79.6461 187.137 75.4431 187.662 71.3452 188.608 67.3524 189.238 64.8306 190.499 62.6241 192.601 60.9429 193.441 60.2074 194.282 59.4719 195.227 58.7363 197.224 57.1602 199.115 55.6892 201.112 54.1131 200.376 53.3776 199.22 53.1674 198.8 52.3268 198.17 51.0659 197.224 50.9609 196.173 50.9609 194.807 50.8558 193.546 50.9609 192.18 51.0659 189.764 51.2761 187.662 50.6457 185.666 49.1746 185.245 48.8594 184.72 48.4391 184.405 48.1239 183.249 47.0731 182.093 46.9681 180.727 47.5985 179.676 48.1239 178.731 48.5442 177.68 49.0695 175.999 50.0152 175.894 50.3304 177.05 51.8015 177.785 52.7471 178.521 53.5877 179.046 54.7435 179.571 55.8993 179.256 56.6349 178.1 57.0552 177.155 57.4755 176.104 57.4755 175.053 57.4755 172.531 57.3704 170.01 57.3704 167.488 57.4755 167.068 57.4755 166.647 57.3704 166.332 57.7907 166.647 58.6313 167.278 59.1566 167.908 59.7871 169.274 61.3632 170.85 62.8342 172.006 64.5154 172.952 65.8814 172.637 66.722 170.955 66.9321 170.325 67.0372 169.694 67.0372 169.064 67.0372 167.068 67.0372 164.966 67.0372 162.549 67.0372 163.18 67.5626 163.495 67.8778 163.915 68.0879 165.702 69.4539 167.488 70.8199 169.274 72.1858 169.8 72.6061 170.325 73.0264 170.745 73.5518 171.06 73.867 171.376 74.2873 171.165 74.8127 170.955 75.338 170.43 75.338 170.01 75.338 168.118 75.4431 166.332 75.4431 164.546 74.8127 163.39 74.3924 162.234 74.1822 160.973 74.0771 157.716 73.9721 154.459 73.867 151.201 75.0228 149.73 75.5482 148.154 75.4431 146.578 75.338 145.212 75.233 145.002 74.6025 145.843 73.5518 146.158 73.1315 146.578 72.7112 147.104 72.396 148.995 71.03 150.781 69.664 152.567 68.193 152.988 67.8778 153.303 67.5626 153.723 67.2473 153.303 66.9321 152.988 67.0372 152.567 67.0372 150.676 67.0372 148.785 67.0372 146.893 67.0372 146.368 67.0372 145.738 67.0372 145.212 66.827 144.056 66.5118 143.846 65.8814 144.372 64.8306 144.582 64.4103 144.897 64.0951 145.212 63.6748 146.158 62.6241 147.104 61.5733 147.944 60.6277 148.785 59.682 149.73 58.8414 150.466 57.5805 149.835 57.2653 149.415 57.3704 148.89 57.3704 146.473 57.2653 143.951 57.2653 141.535 57.3704 140.484 57.3704 139.433 57.3704 138.487 56.9501 137.437 56.5298 137.122 55.7943 137.542 54.7435 137.857 53.9029 138.382 53.2725 138.908 52.537 139.223 52.1167 139.643 51.6964 139.959 51.171 140.484 50.3304 140.484 49.9101 139.643 49.3848 138.803 48.8594 137.962 48.4391 137.122 48.0188 135.125 46.7579 133.339 46.863 131.448 48.5442 129.451 50.4355 126.824 51.171 124.092 50.8558 122.937 50.7507 121.886 50.7507 120.73 50.7507 119.574 50.7507 118.418 50.8558 117.788 52.2218 117.578 52.7471 116.947 52.9573 116.527 53.2725 116.212 53.4827 115.792 53.5877 115.686 54.1131 118.734 56.4247 121.676 58.7363 124.513 61.2581 126.089 62.6241 127.139 64.2002 127.77 66.1966 129.136 70.1894 129.346 74.2873 129.241 78.4902 129.241 79.4359 129.031 80.3816 128.716 81.3272 128.085 82.6932 126.824 83.4287 125.458 83.1135 124.197 82.9034 123.882 82.4831 123.987 81.2222 123.987 79.7511 124.197 78.3852 124.092 76.9141 123.672 70.3996 119.784 66.9321 113.48 66.827 112.744 66.827 112.534 67.0372 112.534 67.7727 112.429 69.4539 112.534 71.2402 112.114 73.0264 109.802 73.0264 107.491 73.0264 105.179 73.0264 104.759 74.7076 104.864 76.3888 104.759 77.9649 104.654 79.1207 104.654 79.1207 103.498 79.1207 102.657 79.1207 101.712 79.1207 100.871 79.1207 100.135 79.1207 99.9253 79.4359 99.8203 80.1714 99.7152 81.7476 99.8203 83.2186 100.766 84.3744 101.712 85.5302 101.817 86.8962 101.922 88.2621 102.027 89.6281 101.712 90.889 101.712 92.2549 101.712 93.2006 101.817 94.0412 102.447 94.6716 104.549 96.8782 106.65 98.9797 108.752 101.186 109.277 101.712 109.592 101.712 110.118 101.186 111.904 99.6101 113.69 98.1391 115.581 96.668 115.897 96.4579 116.107 96.0376 116.632 96.1427 117.157 98.034 117.683 99.9253 118.103 101.817 118.313 102.447 118.523 103.078 119.154 103.393 119.889 103.708 120.1 104.233 120.1 105.074 119.994 107.281 120.1 109.487 119.994 111.694 119.994 112.534 120.31 112.744 121.045 112.744 122.831 112.744 124.513 112.955 126.299 112.955 127.665 112.955 127.665 112.955 127.98 114.215 128.505 116.002 129.661 117.263 131.553 117.683 132.813 117.998 133.444 117.473 133.339 116.212 133.339 115.476 133.024 114.846 132.603 114.215 132.183 113.69 131.868 113.06 131.658 112.429 131.237 110.853 131.868 109.802 133.549 109.592 134.81 109.382 135.861 109.802 136.806 110.538 139.328 112.534 140.694 115.266 141.324 118.313 141.745 120.31 141.535 122.201 140.484 123.882 139.013 126.299 137.016 128.295 134.915 130.187 134.285 130.817 133.654 130.817 132.813 130.397 132.393 130.187 132.078 129.766 131.763 129.346 130.817 128.085 129.766 126.824 128.821 125.563 127.245 123.567 125.668 121.571 124.092 119.469 123.252 118.418 122.306 117.578 121.045 117.263 119.994 116.947 118.944 117.578 118.944 118.629 118.839 120.31 119.049 121.781 120.625 122.831 123.882 125.038 127.034 127.245 130.292 129.346 130.922 129.766 131.553 130.187 131.763 130.922 132.183 132.603 132.078 134.285 130.817 135.545 129.136 137.332 127.35 138.908 125.248 140.169 124.197 140.799 122.937 141.219 121.781 141.114 117.893 140.694 114.215 139.328 110.958 137.122 110.223 136.596 109.592 135.861 109.277 135.02 108.752 133.759 109.172 132.708 110.012 131.763 110.853 130.922 111.694 131.027 112.744 131.448 113.69 131.763 114.531 132.183 115.476 132.498 116.107 132.708 116.737 133.024 117.263 132.288 117.578 131.868 117.368 130.607 116.842 130.187 116.632 129.976 116.317 129.766 116.107 129.661 115.161 129.031 114.32 128.295 113.375 127.665 112.639 127.245 112.429 126.824 112.639 125.879 112.955 124.197 113.06 122.516 113.27 120.73 110.748 120.73 108.226 120.625 105.809 120.73 104.759 120.73 103.918 120.52 103.288 119.679 102.762 118.839 102.027 118.629 101.081 118.629 99.505 118.629 97.8239 118.523 95.9325 118.523 98.1391 115.581 100.241 112.849 102.447 110.118 99.6101 107.701 96.8782 105.284 93.9361 103.183 92.9905 102.447 91.8346 102.132 90.6788 101.922 89.3129 101.817 87.9469 101.712 86.5809 101.922 85.5302 102.027 84.6896 101.922 83.9541 101.081 83.3237 100.346 82.378 99.7152 81.4323 99.4 79.7511 98.7695 78.5953 99.4 78.3852 101.186 78.2801 102.132 78.175 102.972 78.07 103.918 77.9649 104.654 77.8598 105.074 76.9141 105.074 75.6533 105.074 74.3924 105.284 73.2365 105.389 73.2365 107.701 73.2365 109.802 73.2365 112.114 72.6061 112.114 71.9757 112.114 71.3452 112.114 69.8742 112.114 68.5082 112.219 67.0372 112.429 65.6712 112.639 65.1459 113.27 65.2509 114.636 65.356 115.266 65.4611 115.897 65.8814 116.527 67.5626 118.629 69.2437 120.73 71.1351 122.516 72.396 123.672 73.7619 124.303 75.4431 124.197 76.1786 124.197 76.9141 124.092 77.5446 124.092 78.4902 124.092 79.541 123.987 80.4867 124.197 81.8526 124.513 82.4831 125.353 82.1678 126.824 81.7476 129.136 80.1714 130.397 78.07 131.237 75.8634 132.183 73.4467 132.183 71.1351 131.973 67.4575 131.553 64.3053 129.871 61.3632 127.665 58.211 125.248 55.5841 122.411 53.2725 119.259 53.0624 118.944 52.9573 118.523 52.4319 118.418 51.9065 118.944 51.8015 119.574 51.8015 120.205 51.8015 121.781 51.6964 123.252 51.9065 124.828 52.1167 127.139 51.4862 129.136 50.2254 130.922 49.7 131.553 49.2797 132.183 48.7543 132.813 48.229 133.444 48.0188 134.179 48.229 134.915 48.7543 136.701 49.5949 138.382 50.6457 139.853 51.0659 140.484 51.5913 140.589 52.2218 140.169 52.6421 139.853 52.9573 139.643 53.2725 139.328 53.9029 138.803 54.6385 138.277 55.374 137.857 56.845 137.122 57.8958 137.542 58.211 139.118 58.3161 139.853 58.3161 140.694 58.3161 141.43 58.3161 143.531 58.3161 145.527 58.3161 147.629 58.3161 148.575 58.4211 149.52 58.6313 150.466 59.2617 150.256 59.5769 149.941 59.9972 149.625 61.5733 148.259 63.0444 146.893 64.6205 145.527 65.0408 145.107 65.5662 144.687 66.0915 144.477 66.9321 144.056 67.5626 144.372 67.8778 145.317 68.0879 145.948 68.0879 146.473 68.0879 147.104 68.0879 149.31 68.0879 151.517 68.0879 153.828 68.6133 153.618 68.7184 153.303 68.9285 153.093 70.3996 151.201 71.8706 149.31 73.3416 147.314 73.7619 146.683 74.2873 146.053 74.9177 145.738 75.6533 145.317 76.1786 145.527 76.3888 146.368 76.5989 147.839 76.5989 149.205 76.2837 150.676 76.0736 151.622 75.6533 152.567 75.5482 153.513 75.0228 157.296 74.8127 161.078 75.9685 164.756 76.4939 166.542 76.704 168.328 76.3888 170.22 76.2837 171.376 75.7583 171.586 74.7076 170.85 74.0771 170.43 73.6568 169.905 73.2365 169.274 71.8706 167.488 70.5046 165.702 69.1387 163.915 68.9285 163.6 68.7184 163.18 68.193 162.97 67.8778 163.39 68.0879 163.81 68.0879 164.231 68.0879 166.332 68.0879 168.434 68.0879 170.535 68.0879 171.271 67.9828 172.006 67.2473 172.426 66.5118 172.847 65.8814 172.216 65.2509 171.901 65.0408 171.796 64.9357 171.691 64.7256 171.481 63.5697 170.43 62.4139 169.379 61.153 168.328 60.4175 167.593 59.682 166.857 58.7363 166.332 58.4211 166.542 58.4211 166.752 58.4211 166.963 58.1059 169.694 58.3161 172.426 58.211 175.158 58.211 175.999 58.211 176.839 58.1059 177.575 57.7907 179.256 56.7399 179.782 55.1638 178.941 54.2182 178.416 53.4827 177.785 52.6421 177.155 51.171 175.999 50.8558 175.999 49.9101 177.575 49.3848 178.626 48.8594 179.676 48.334 180.727 47.5985 182.093 47.8087 183.354 48.9645 184.51 49.2797 184.825 49.5949 185.245 49.9101 185.666 51.2761 187.557 52.0116 189.659 51.6964 191.97 51.5913 193.546 51.5913 195.017 51.6964 196.593 51.6964 197.224 51.8015 197.959 52.3268 198.38 52.9573 198.17 53.0624 197.644 53.3776 197.224 56.3196 193.336 59.5769 189.869 63.7799 187.347 67.0372 185.35 70.6097 184.51 74.3924 184.825 76.2837 184.93 78.175 185.456 79.6461 186.611 80.8019 187.557 81.6425 188.608 81.9577 190.184 82.0628 190.919 81.9577 191.655 81.3272 192.18 80.8019 192.706 80.0664 192.811 79.3308 192.811 77.9649 192.811 76.704 192.811 75.338 192.706 73.867 192.706 72.501 192.916 71.3452 193.861 69.1387 195.858 67.1423 198.064 65.4611 200.481 64.0951 202.478 65.0408 204.264 67.3524 204.369 68.9285 204.474 70.3996 204.579 71.9757 204.579 72.7112 204.579 72.9213 204.684 72.9213 205.525 72.8163 207.206 72.8163 208.782 72.7112 210.463 72.6061 211.199 72.9213 211.409 73.6568 211.514 74.7076 211.514 75.6533 211.724 76.704 211.724 77.4395 211.724 77.5446 212.039 77.6497 212.67 77.7547 213.615 77.8598 214.561 77.9649 215.612 78.2801 217.503 79.3308 218.134 81.1171 217.503 82.2729 217.083 83.1135 216.347 83.9541 215.507 84.4795 214.981 84.8998 214.876 85.6353 214.981 86.8962 215.191 88.052 215.086 89.3129 215.086 90.994 215.086 92.5702 214.561 93.9361 213.615 96.563 211.724 98.9797 209.623 101.501 207.521 102.132 206.996 102.132 206.68 101.712 206.05 100.03 203.843 98.2442 201.742 96.563 199.535 96.3528 199.22 95.9325 199.01 96.1427 198.275 97.7188 198.275 99.4 198.275 100.976 198.275 101.922 198.275 102.657 197.959 103.183 197.224 103.708 196.383 104.444 196.173 105.494 196.173 108.016 196.278 110.538 196.173 113.06 196.173 112.849 194.387 112.639 192.601 112.324 190.814 112.219 190.184 112.429 189.764 112.955 189.448 114.11 188.713 115.056 187.872 116.212 187.137 116.947 186.611 117.157 185.981 117.157 185.14 117.157 184.51 116.842 184.195 116.212 184.195 115.792 184.195 115.266 184.405 114.846 184.51 113.9 184.825 113.06 185.245 112.114 185.561 110.748 185.981 110.012 185.666 109.277 184.51 108.646 183.354 108.646 182.303 109.382 181.148 110.118 180.097 111.063 179.361 112.114 178.731 114.741 177.365 117.473 176.209 120.52 175.789 122.201 175.474 123.672 175.789 125.038 176.629 127.139 177.89 128.926 179.466 130.607 181.253 132.393 183.144 131.868 186.191 129.766 187.557 126.614 189.659 123.567 191.76 120.415 193.756 119.154 194.597 118.734 195.753 118.629 197.119 118.523 199.115 119.679 199.956 121.571 199.115 122.621 198.695 123.357 197.854 123.987 197.014 126.404 193.861 128.821 190.814 131.342 187.662 131.658 187.242 131.973 186.822 132.393 186.506 133.339 185.771 134.074 185.771 135.02 186.611 135.44 187.032 135.861 187.452 136.386 187.872 137.962 189.448 139.433 191.024 140.589 193.021 141.219 194.177 141.64 195.332 141.535 196.698 141.43 199.115 140.694 201.427 139.328 203.528 138.487 204.789 137.542 205.945 136.176 206.68 135.125 207.311 133.969 207.626 132.813 207.101 131.658 206.68 131.237 205.84 131.553 204.684 131.763 203.949 132.078 203.213 132.603 202.688 133.129 202.057 133.339 201.322 133.339 200.586 133.339 199.43 132.708 199.01 131.658 199.22 129.976 199.641 128.716 200.691 128.19 202.372 127.98 202.898 127.875 203.423 127.77 204.054 125.563 204.054 123.462 204.054 121.36 204.264 120.205 204.369 120.205 204.369 120.205 205.525 120.205 207.731 120.205 209.938 120.205 212.144 120.205 212.67 120.205 213.195 119.574 213.405 118.523 213.826 118.208 214.771 117.998 215.822 117.578 217.503 117.052 219.184 116.632 221.076 114.11 218.974 111.799 217.083 109.697 215.297 107.491 217.398 105.494 219.5 103.288 221.391 101.922 222.547 101.607 224.018 101.817 225.699 102.027 226.75 102.027 227.8 102.027 228.956 102.027 230.217 101.817 231.478 100.976 232.529 99.9253 233.79 99.8203 235.366 100.03 236.942 100.135 237.572 100.451 237.887 100.976 237.887 101.922 237.887 102.867 237.887 103.708 237.993 104.759 237.993 104.759 238.098 104.864 239.148 104.969 240.409 104.969 241.565 105.074 242.826 105.179 244.192 105.284 244.192 106.545 244.192 108.016 244.192 109.382 244.192 110.853 244.192 112.324 244.192 112.429 244.192 112.534 245.558 112.639 246.819 112.744 248.08 112.744 249.446 112.744 250.076 112.955 250.391 113.585 250.391 118.523 250.391 122.937 248.29 124.092 242.301 124.513 240.304 124.408 238.203 124.303 236.206 124.197 234.84 124.618 234.315 125.984 234.21 127.77 234 129.031 235.156 129.346 237.257 129.976 242.195 129.556 247.029 127.875 251.757 127.35 253.438 126.404 254.804 125.038 255.855 123.252 257.326 121.571 258.797 119.784 260.163 118.523 261.214 117.157 262.16 115.792 263.21 116.842 264.051 118.103 264.471 118.629 265.732 118.734 266.047 119.154 266.047 119.574 266.152 120.94 266.468 122.201 266.468 123.567 266.257 126.929 265.732 129.871 266.573 132.393 268.884 132.498 268.989 132.708 269.094 132.919 269.305 133.864 270.145 134.81 270.25 135.966 269.83 137.227 269.305 138.382 268.674 139.538 268.044 141.114 267.203 141.114 266.783 139.959 265.312 139.328 264.471 138.698 263.736 138.172 262.79 137.332 261.214 137.752 260.373 139.538 259.848 140.274 259.638 141.009 259.638 141.85 259.638 144.372 259.638 146.998 259.638 149.52 259.638 149.941 259.638 150.361 259.743 150.676 259.323 150.571 258.797 150.151 258.377 149.835 257.957 149.205 257.221 148.47 256.486 147.734 255.645 146.683 254.594 145.633 253.543 144.897 252.283 144.161 251.127 144.582 250.286 145.843 250.076 146.368 249.971 146.893 249.971 147.419 249.971 149.31 249.971 151.201 249.971 153.093 249.971 153.408 249.971 153.828 250.181 154.038 249.761 153.828 249.551 153.618 249.446 153.513 249.235 151.517 247.764 149.52 246.188 147.524 244.717 146.998 244.297 146.368 243.877 146.053 243.246 145.527 242.406 145.738 241.88 146.683 241.775 148.575 241.565 150.361 241.565 152.147 242.09 156.455 243.351 160.763 243.351 164.966 242.09 166.752 241.565 168.644 241.46 170.43 241.67 171.586 241.775 171.691 242.301 171.06 243.246 170.64 243.877 170.115 244.297 169.484 244.717 167.698 246.083 165.807 247.449 164.02 248.92 163.705 249.235 163.18 249.341 163.075 249.971 165.281 249.971 167.383 249.971 169.484 249.971 170.115 249.971 170.745 249.971 171.376 250.076 172.637 250.286 172.952 251.127 172.321 252.178 171.691 253.228 170.85 254.069 170.115 254.909 169.169 255.96 168.223 257.011 167.173 258.062 166.857 258.377 166.332 258.692 166.542 259.217 166.752 259.743 167.383 259.533 167.803 259.533 170.325 259.533 172.847 259.533 175.368 259.533 176.104 259.533 176.945 259.533 177.68 259.743 179.571 260.163 179.887 261.109 179.046 262.79 178.521 263.736 177.785 264.576 177.05 265.522 176.209 266.573 176.314 266.993 177.47 267.728 178.416 268.254 179.466 268.779 180.517 269.305 182.198 270.145 183.564 270.04 185.035 268.779 187.452 266.573 190.289 265.732 193.546 266.152 194.912 266.362 196.278 266.362 197.644 266.047 198.064 265.942 198.485 265.942 198.695 265.522 199.22 264.261 200.481 263.841 201.427 263.105 201.217 262.58 200.691 262.37 200.271 262.054 197.539 259.953 194.807 257.746 192.18 255.435 190.919 254.384 190.079 253.018 189.553 251.547 187.872 246.819 187.452 241.985 188.082 237.047 188.187 236.206 188.503 235.471 189.028 234.84 189.764 234 191.13 233.684 192.285 234.105 193.126 234.42 193.336 234.84 193.231 236.416 193.021 238.098 193.021 239.779 193.336 241.46 194.282 247.764 198.695 250.076 203.843 250.181 204.579 250.181 204.789 249.866 204.789 249.13 204.789 247.659 204.999 246.293 204.999 244.822 204.999 244.192 205.209 243.877 205.945 243.982 207.626 243.982 209.307 243.982 210.989 243.982 212.354 243.982 212.354 243.982 212.46 242.511 212.46 241.25 212.565 240.094 212.565 238.833 212.565 238.098 212.88 237.782 213.615 237.887 214.561 237.887 215.612 237.887 216.557 237.782 217.188 237.782 217.503 237.467 217.503 236.837 217.608 235.05 217.398 233.474 216.242 232.108 215.717 231.478 215.612 230.848 215.507 230.112 215.402 228.326 215.507 226.645 215.612 224.858 215.717 223.702 215.402 222.652 214.561 221.811 212.565 219.815 210.568 217.818 208.677 215.717 208.046 215.086 207.731 215.191 207.206 215.717 205.42 217.293 203.633 218.764 201.742 220.235 201.532 220.445 201.322 220.76 200.691 220.76 200.271 218.974 199.746 217.188 199.22 215.402 199.01 214.666 198.8 213.931 197.959 213.615 197.224 213.3 197.119 212.775 197.119 212.039 197.119 209.833 197.119 207.626 197.119 205.42 197.119 204.579 196.804 204.369 196.068 204.369 194.072 204.264 192.18 204.054 190.184 204.159 189.553 204.159 189.343 204.054 189.238 203.318 189.028 201.847 188.187 200.586 186.927 199.851 186.086 199.43 185.245 198.695 184.195 199.535 183.564 200.061 183.669 201.427 184.3 202.583 184.615 203.108 185.035 203.633 185.245 204.159 186.086 206.26 184.93 207.836 182.724 207.521 181.568 207.416 180.622 206.786 179.782 206.05 177.575 204.054 176.419 201.532 175.789 198.59 175.263 196.173 175.894 194.072 177.365 192.075 178.731 190.184 180.412 188.503 182.093 186.822 182.934 185.981 183.774 185.981 184.72 186.822 185.035 187.137 185.35 187.452 185.666 187.872 188.187 191.13 190.709 194.282 193.231 197.539 194.072 198.59 195.017 199.43 196.383 199.641 197.434 199.851 198.17 199.325 198.38 198.275 198.695 196.909 197.959 195.017 196.804 194.177 193.651 191.97 190.499 189.764 187.242 187.767 185.035 186.401 184.615 183.354 186.401 181.463 187.977 179.782 189.764 178.205 191.76 176.945 192.916 176.209 194.282 175.684 195.648 175.894 199.325 176.419 202.793 177.68 205.945 179.676 206.68 180.202 207.311 180.832 207.731 181.673 208.362 182.934 208.152 184.195 207.206 185.245 206.365 186.191 205.42 185.981 204.369 185.561 203.423 185.245 202.583 184.825 201.637 184.51 201.112 184.3 200.481 184.09 199.956 184.72 199.641 185.14 199.746 186.191 200.166 186.716 200.376 186.927 200.586 187.137 200.901 187.347 201.847 187.977 202.688 188.713 203.633 189.343 204.579 189.869 204.684 190.499 204.579 191.55 204.264 193.126 204.054 194.807 204.054 196.278 204.369 196.593 204.579 196.488 204.894 196.488 207.206 196.488 209.623 196.383 211.934 196.383 212.565 196.383 213.09 196.383 213.405 196.909 214.246 198.17 215.297 198.59 216.768 198.485 217.818 198.38 218.869 198.485 219.815 198.59 220.235 198.59 220.655 198.485 220.971 198.8 220.971 199.325 220.655 199.535 220.445 199.746 218.764 201.952 217.083 204.159 215.402 206.26 214.981 206.786 214.876 207.101 215.507 207.626 218.028 209.728 220.55 211.934 223.282 213.931 224.438 214.771 225.699 215.191 227.17 215.297 228.431 215.402 229.692 215.402 230.848 215.191 231.898 215.086 232.634 215.191 233.474 216.032 234.21 216.768 235.05 217.398 236.101 217.818 237.677 218.344 238.728 217.818 239.043 216.242 239.253 215.191 239.358 214.246 239.464 213.195 239.569 212.46 239.674 212.039 240.514 212.144 241.46 212.144 242.301 212.039 243.246 211.934 244.402 211.829 244.507 211.724 244.402 210.673 244.192 209.307 244.297 207.941 244.192 206.575 244.087 205.104 244.087 205.104 245.663 205.104 247.239 205.104 248.71 204.999 250.286 204.894 251.862 204.789 252.283 204.159 252.178 202.583 252.178 201.952 251.967 201.427 251.652 201.007 249.971 198.8 248.29 196.804 246.293 194.807 245.032 193.546 243.456 193.021 241.67 193.126 240.409 193.231 239.148 193.231 237.782 193.231 235.576 193.126 234.525 192.18 235.471 189.553 235.786 188.713 236.311 188.082 237.047 187.452 237.993 186.716 238.938 186.086 240.094 185.771 243.561 184.825 246.924 185.035 250.181 186.296 253.543 187.557 256.275 189.659 258.797 192.075 260.794 193.967 262.475 196.068 264.051 198.275 264.261 198.485 264.366 198.905 264.681 198.8 264.997 198.695 265.102 198.38 265.207 198.064 265.417 196.909 265.522 195.753 265.312 194.492 264.891 190.709 265.522 187.242 268.359 184.405 268.989 183.774 269.2 182.934 268.989 182.093 268.464 180.307 267.623 178.731 266.573 177.155 266.152 176.524 265.627 176.419 264.997 176.945 264.576 177.26 264.156 177.575 263.841 177.89 263.105 178.416 262.37 179.046 261.529 179.361 260.268 179.887 259.638 179.571 259.112 178.311 258.797 177.575 258.797 176.839 258.797 175.999 258.797 173.372 258.797 170.745 258.797 168.118 258.797 167.593 258.902 166.963 258.377 166.542 257.746 166.857 257.326 167.278 256.801 167.698 255.54 168.854 254.384 169.905 253.123 171.06 252.598 171.586 251.967 172.006 251.337 172.426 250.286 173.057 249.551 172.742 249.341 171.586 249.235 170.955 249.13 170.43 249.13 169.8 249.13 167.908 249.13 166.122 249.13 164.231 249.13 163.915 249.341 163.495 248.815 163.285 248.29 163.915 247.869 164.546 247.344 165.176 245.978 166.963 244.612 168.749 243.246 170.535 242.826 171.06 242.195 171.796 241.46 171.481 240.724 171.165 240.935 170.325 240.83 169.694 240.724 168.013 240.935 166.332 241.46 164.651 242.511 160.658 242.511 156.665 241.46 152.672 240.935 150.781 240.619 148.995 240.83 147.104 240.83 146.578 240.83 145.948 241.46 145.843 241.985 145.633 242.406 146.053 242.826 146.368 243.246 146.788 243.667 147.209 244.087 147.734 245.558 149.625 246.924 151.517 248.395 153.408 248.605 153.618 248.605 154.144 249.235 154.038 249.235 151.937 249.235 149.835 249.235 147.734 249.235 146.998 249.341 146.158 249.551 145.422 249.761 144.687 250.286 144.477 251.022 144.687 251.442 144.792 251.862 145.107 252.178 145.422 253.228 146.368 254.279 147.209 255.33 148.154 256.38 149.1 257.326 150.151 258.587 150.886 259.112 150.361 259.007 149.835 259.007 149.205 259.007 146.578 259.007 143.951 259.007 141.324 259.007 140.589 259.007 139.748 259.323 139.013 259.743 137.857 260.583 137.437 261.739 138.067 262.16 138.277 262.58 138.487 262.895 138.803 263.631 139.328 264.261 139.853 264.997 140.379 265.942 141.114 266.362 141.009 266.993 140.064 267.518 139.223 267.834 138.277 268.359 137.542 269.515 135.545 269.515 133.864 267.834 132.183 266.047 130.292 265.312 128.085 265.417 125.458 265.522 123.777 265.627 122.201 265.522 120.52 265.417 119.889 265.417 119.259 264.786 118.734 264.471 119.154 264.156 119.574 263.841 119.994 261.949 122.621 259.743 125.038 257.221 127.139 254.069 129.766 250.496 131.868 246.293 132.393 243.877 132.603 241.565 132.603 239.358 131.658 237.572 130.922 236.101 129.871 235.471 127.98 234.84 125.879 235.471 124.723 237.677 124.618 238.833 124.513 239.989 124.513 241.04 124.723 243.456 125.038 245.453 124.197 247.134 122.411 248.71 120.73 250.181 118.944 251.652 117.157 251.862 116.842 252.072 116.527 252.178 116.212 252.808 114.215 252.178 113.165 250.076 112.955 248.605 112.849 247.134 112.744 245.663 112.744 244.297 112.744 244.297 112.744 244.402 111.483 244.507 110.012 244.402 108.646 244.612 107.175 244.822 106.02 244.717 106.02 243.456 105.915 241.67 105.074 240.619 104.969 239.674 104.969ZM84.6896 162.549C84.7947 163.495 85.1099 164.336 85.5302 165.176 86.1607 166.437 86.7911 167.593 87.2114 168.959 87.3165 169.379 87.4215 169.8 87.4215 170.115 87.4215 170.85 87.2114 171.165 86.2657 171.165 84.0592 171.165 82.4831 170.01 81.3272 168.223 80.6968 167.278 80.4867 166.227 80.2765 165.176 79.7511 162.865 79.541 160.553 79.6461 158.241 79.541 155.404 79.8562 152.672 80.5917 149.941 81.1171 147.839 82.378 146.368 84.3744 145.633 85.215 145.317 86.2657 145.002 87.0012 145.633 87.7368 146.368 87.2114 147.314 86.8962 148.049 86.4759 149.205 85.9505 150.256 85.3201 151.412 84.8998 152.357 84.4795 153.303 84.3744 154.354 84.2693 157.086 84.2693 159.818 84.6896 162.549ZM94.9869 162.234C95.197 163.39 95.5122 164.441 96.0376 165.386 96.668 166.647 97.4036 167.908 97.7188 169.274 98.034 170.745 97.7188 171.165 96.2477 171.06 93.9361 170.85 92.2549 169.484 91.4144 167.278 90.4687 165.071 90.1535 162.654 90.1535 160.238 90.1535 159.607 90.1535 158.872 90.1535 158.241 90.0484 155.404 90.3636 152.672 91.0991 149.941 91.6245 147.944 92.8854 146.473 94.7767 145.738 95.7224 145.317 96.7731 145.002 97.5086 145.738 98.2442 146.368 97.6137 147.419 97.4036 148.154 97.0883 149.1 96.668 150.046 96.1427 150.886 95.197 152.567 94.7767 154.459 94.7767 156.35 94.8818 158.346 94.6716 160.343 94.9869 162.234ZM119.364 172.111C116.842 172.742 114.951 174.423 112.744 175.579 112.009 175.999 111.273 176.314 110.433 176.419 108.752 176.629 107.491 175.579 107.491 173.897 107.491 173.162 107.806 172.637 108.541 172.321 110.433 171.586 111.168 169.8 112.009 168.223 112.219 167.803 112.324 167.278 111.904 166.963 111.483 166.542 111.063 166.857 110.643 167.068 110.328 167.173 110.118 167.383 109.907 167.593 108.436 168.749 106.965 168.644 105.284 167.803 101.396 165.702 99.6101 162.549 99.6101 157.716 99.7152 153.723 101.712 150.571 105.809 148.68 107.175 148.049 108.436 148.049 109.697 148.89 110.223 149.205 110.748 149.625 111.273 149.73 111.904 149.835 112.324 149.52 112.114 148.89 111.589 147.104 110.748 145.422 109.067 144.477 107.491 143.531 107.281 143.111 107.806 141.745 108.331 140.379 109.277 139.853 110.853 140.274 111.483 140.379 112.114 140.694 112.639 141.009 113.9 141.745 115.161 142.48 116.527 143.216 117.368 143.741 118.208 144.161 119.154 144.372 120.31 144.582 120.52 145.317 120.1 146.263 119.679 146.998 119.259 147.734 118.839 148.575 118.313 149.625 117.788 150.571 118.313 151.832 118.313 151.937 118.313 152.042 118.313 152.147 118.629 155.089 117.788 156.035 114.846 156.455 113.165 156.665 111.694 156.455 110.223 155.72 109.067 155.194 108.016 154.669 106.755 154.564 104.233 154.354 102.132 156.665 102.657 159.082 103.288 161.709 104.969 162.865 107.491 162.129 108.541 161.814 109.487 161.394 110.433 160.973 112.429 160.028 114.426 160.133 116.422 160.763 117.578 161.078 118.103 161.919 118.208 162.97 118.208 163.6 118.313 164.231 118.208 164.756 117.788 166.122 118.208 167.173 118.839 168.223 119.259 168.959 119.784 169.694 120.1 170.535 120.415 171.376 120.205 171.901 119.364 172.111ZM145.422 84.3744C145.948 82.2729 147.209 80.6968 149.31 79.9613 152.147 78.9105 155.194 78.5953 158.346 78.8055 161.078 78.7004 163.81 79.0156 166.437 79.7511 168.644 80.3816 170.115 81.6425 170.85 83.849 171.165 84.6896 171.481 85.6353 170.745 86.2657 170.115 86.7911 169.274 86.4759 168.539 86.1607 167.278 85.7404 166.227 85.215 165.071 84.5845 164.02 84.0592 162.97 83.7439 161.919 83.6389 160.133 83.4287 158.241 83.4287 156.35 83.5338 154.249 83.5338 152.252 83.9541 150.466 85.1099 149.52 85.6353 148.47 86.1607 147.419 86.4759 145.738 86.7911 145.002 86.1607 145.422 84.3744ZM145.422 94.7767C145.948 92.6752 147.104 91.2042 149.205 90.4687 151.832 89.523 154.669 89.2078 157.506 89.2078 157.716 89.2078 158.031 89.2078 158.241 89.2078 161.183 89.1027 163.915 89.4179 166.647 90.1535 168.854 90.7839 170.325 92.1499 170.955 94.3564 171.06 94.5666 171.06 94.8818 171.165 95.0919 171.376 96.668 170.85 97.1934 169.274 96.7731 168.013 96.4579 166.857 95.9325 165.807 95.3021 164.336 94.4615 162.654 94.0412 160.973 93.9361 158.662 93.8311 156.35 93.726 154.038 94.1463 153.093 94.3564 152.147 94.6716 151.307 95.0919 150.046 95.7224 148.89 96.3528 147.524 96.7731 145.738 97.2985 145.002 96.563 145.422 94.7767ZM141.009 111.799C140.589 110.958 140.169 110.223 140.064 109.277 139.959 107.701 141.114 106.545 142.69 106.545 143.531 106.545 143.951 106.965 144.161 107.596 145.002 109.487 146.683 110.223 148.364 110.958 148.68 111.168 149.205 111.273 149.52 110.853 149.835 110.538 149.73 110.012 149.52 109.697 149.31 109.277 149.1 108.857 148.785 108.541 147.839 107.281 147.839 106.02 148.575 104.654 150.571 100.661 153.723 98.5594 157.821 98.4543 162.76 98.4543 166.332 100.766 168.013 104.759 168.539 106.02 168.539 107.175 167.698 108.436 167.383 108.962 167.068 109.487 166.857 110.012 166.647 110.748 167.068 111.168 167.698 110.958 169.484 110.328 171.165 109.592 172.111 107.806 172.952 106.335 173.372 106.125 174.633 106.44 175.999 106.86 176.524 107.596 176.419 109.067 176.419 109.802 176.104 110.538 175.684 111.273 174.948 112.639 174.108 113.9 173.372 115.266 172.847 116.107 172.426 116.947 172.216 117.893 171.901 119.154 171.271 119.364 170.22 118.839 169.8 118.629 169.484 118.418 169.169 118.208 167.593 117.157 166.122 116.632 164.126 116.947 161.709 117.368 160.868 116.422 160.343 114.005 159.923 112.114 160.133 110.433 160.973 108.752 161.499 107.701 161.919 106.65 162.129 105.599 162.654 102.867 159.923 100.556 157.296 101.396 154.879 102.132 154.038 103.603 154.564 106.125 154.774 107.07 155.194 108.016 155.615 108.857 156.665 110.853 156.665 112.849 156.035 114.951 155.72 116.212 154.984 116.842 153.618 116.947 153.093 116.947 152.462 117.052 151.937 116.842 150.466 116.422 149.31 116.947 148.154 117.683 147.419 118.103 146.788 118.523 146.053 118.839 145.212 119.154 144.687 118.944 144.477 118.208 143.741 116.002 142.165 114.005 141.009 111.799ZM171.06 232.213C170.535 234.42 169.169 235.891 166.963 236.627 164.336 237.467 161.709 237.782 158.977 237.782 158.767 237.782 158.452 237.782 158.452 237.782 155.299 237.887 152.357 237.572 149.52 236.627 147.314 235.891 145.948 234.42 145.422 232.319 145.317 232.003 145.317 231.688 145.317 231.373 145.317 230.322 145.633 230.007 146.683 230.007 147.314 230.007 147.839 230.217 148.47 230.532 149.31 230.848 150.046 231.163 150.781 231.688 152.778 232.844 154.984 233.159 157.086 233.054 158.031 233.054 158.977 233.159 160.028 233.054 162.234 232.949 164.231 232.529 166.122 231.373 166.963 230.848 167.908 230.427 168.959 230.217 170.85 229.797 171.481 230.427 171.06 232.213ZM145.317 221.076C145.317 219.92 145.738 219.5 146.893 219.71 148.154 219.92 149.31 220.445 150.466 221.076 152.567 222.337 154.879 222.652 157.191 222.652 158.031 222.652 158.977 222.652 159.818 222.652 161.814 222.547 163.81 222.337 165.597 221.286 166.752 220.55 168.013 220.025 169.379 219.71 170.745 219.394 171.271 219.815 171.06 221.181 170.745 223.597 169.379 225.279 167.173 226.119 164.546 227.065 161.814 227.38 158.977 227.38 158.662 227.38 158.346 227.38 158.031 227.38 155.089 227.38 152.252 227.065 149.415 226.224 147.314 225.489 145.948 224.123 145.422 221.916 145.422 221.706 145.317 221.391 145.317 221.076ZM175.684 205.104C176.209 205.945 176.524 206.891 176.419 207.836 176.314 209.202 174.738 210.358 173.477 209.938 172.847 209.833 172.531 209.307 172.321 208.782 171.481 206.891 169.8 206.26 168.118 205.42 167.803 205.209 167.278 205.209 166.963 205.63 166.752 205.945 166.857 206.365 166.963 206.68 167.278 207.206 167.593 207.731 167.908 208.257 168.539 209.202 168.539 210.253 168.118 211.304 166.332 215.717 162.549 218.134 157.611 217.923 153.303 217.713 150.361 215.507 148.47 211.619 147.839 210.253 147.944 209.097 148.785 207.836 149.1 207.416 149.52 206.891 149.625 206.365 149.835 205.525 149.52 205.104 148.68 205.315 146.893 205.945 145.317 206.68 144.372 208.467 143.636 209.728 143.111 210.043 141.955 209.728 140.694 209.412 140.064 208.572 140.064 207.311 140.064 206.47 140.379 205.735 140.799 204.999 141.535 203.843 142.165 202.583 142.901 201.427 143.531 200.376 144.056 199.43 144.372 198.275 144.687 197.119 145.212 196.909 146.263 197.434 146.998 197.854 147.734 198.275 148.575 198.695 149.52 199.22 150.466 199.535 151.622 199.325 152.357 199.115 152.988 199.22 153.723 199.22 154.984 199.325 155.72 200.061 156.035 201.217 156.56 203.318 156.665 205.315 155.615 207.311 154.984 208.467 154.564 209.623 154.459 210.883 154.249 213.09 156.665 215.297 158.872 214.876 161.604 214.351 162.76 212.46 162.024 209.833 161.814 208.887 161.394 207.941 160.973 207.101 159.923 205.104 160.133 203.108 160.658 201.112 161.078 199.535 162.024 199.115 164.336 199.22 166.017 199.851 167.698 199.01 169.379 197.959 169.484 197.854 169.589 197.854 169.694 197.749 171.586 196.698 172.006 196.804 172.531 198.905 172.637 199.43 172.952 199.851 173.162 200.271 173.897 202.057 174.843 203.633 175.684 205.104ZM193.967 164.336C192.916 168.223 190.604 171.06 187.347 173.267 185.981 174.108 184.51 174.633 182.829 174.528 182.093 174.528 181.673 174.213 181.253 173.372 179.992 170.22 177.575 168.328 174.318 167.593 173.057 167.278 172.006 167.698 170.955 168.434 168.223 170.22 166.437 174.633 167.278 177.785 167.803 179.782 169.484 181.148 172.006 181.358 172.952 181.463 173.897 181.673 175.053 181.463 174.423 184.51 173.162 187.137 171.165 189.343 168.644 192.18 165.281 193.651 161.709 194.282 157.506 195.017 153.408 194.492 149.625 192.495 145.422 190.394 143.006 186.822 141.745 182.408 141.64 182.198 141.64 181.883 141.85 181.673 143.111 181.673 144.372 181.673 145.633 181.358 147.734 180.832 149.625 179.466 149.52 176.209 149.415 173.477 148.575 171.165 146.683 169.274 145.002 167.698 143.111 167.173 140.904 168.223 138.382 169.379 136.386 171.06 135.44 173.687 135.23 174.318 134.81 174.528 134.285 174.633 132.919 174.843 131.658 174.528 130.397 173.897 126.509 171.901 123.987 168.749 122.831 164.441 121.781 160.553 121.781 156.56 122.831 152.567 123.777 148.68 126.089 145.738 129.451 143.636 130.922 142.69 132.498 142.165 134.285 142.375 135.02 142.48 135.335 142.69 135.545 143.426 136.596 146.263 138.803 148.049 141.64 149.1 143.321 149.73 144.897 149.31 146.263 148.259 149.1 145.948 150.046 142.901 149.52 139.328 149.31 137.647 148.049 136.701 146.578 136.071 145.107 135.545 143.636 135.44 142.06 135.44 141.745 135.125 141.955 134.705 141.955 134.39 143.951 127.77 148.47 123.987 155.089 122.726 159.607 121.886 164.02 122.621 168.013 124.933 172.006 127.245 174.213 130.817 175.263 135.23 174.213 135.335 173.267 135.44 172.426 135.44 171.691 135.545 171.06 135.65 170.325 135.966 168.539 136.701 167.488 138.067 167.383 140.064 167.278 142.585 167.908 144.792 169.484 146.788 171.06 148.785 173.477 150.046 176.524 148.47 178.731 147.314 180.622 145.633 181.463 143.216 181.673 142.585 181.988 142.375 182.619 142.27 184.3 142.06 185.876 142.48 187.347 143.426 190.919 145.738 193.336 148.785 194.282 152.988 194.912 156.665 194.912 160.553 193.967 164.336ZM210.673 168.118C209.412 168.644 208.362 168.644 207.206 167.908 206.68 167.593 206.155 167.278 205.63 166.963 204.894 166.647 204.264 167.173 204.579 167.803 205.209 169.484 205.945 171.271 207.731 172.111 208.992 172.742 209.412 173.267 208.992 174.843 208.572 176.104 207.521 176.629 206.26 176.419 205.525 176.314 204.789 175.999 204.159 175.579 202.793 174.843 201.532 174.002 200.166 173.267 199.325 172.847 198.59 172.321 197.644 172.216 196.488 172.006 196.173 171.271 196.698 170.115 197.119 169.379 197.539 168.644 197.959 167.803 198.59 166.752 198.8 165.702 198.485 164.546 198.38 164.231 198.38 163.81 198.38 163.495 198.38 161.604 199.115 160.658 201.007 160.238 203.003 159.818 204.894 159.923 206.68 160.868 207.626 161.394 208.572 161.709 209.517 161.919 211.094 162.234 212.354 161.919 213.3 160.553 214.351 159.082 214.456 157.506 213.405 155.93 212.565 154.564 211.409 154.038 209.728 154.249 208.572 154.459 207.416 154.879 206.365 155.404 204.579 156.35 202.688 156.35 200.691 155.93 198.905 155.509 198.275 154.669 198.275 152.883 198.275 152.672 198.275 152.357 198.275 152.147 198.8 150.466 198.275 148.995 197.329 147.629 197.014 147.104 196.593 146.473 196.383 145.843 196.068 145.002 196.278 144.372 197.119 144.161 199.43 143.636 201.217 142.06 203.213 141.009 204.054 140.589 204.894 140.064 205.84 139.853 207.311 139.538 208.467 140.274 208.782 141.745 208.992 142.796 208.782 143.426 207.836 143.846 205.945 144.687 205.209 146.473 204.369 148.154 204.159 148.47 204.159 148.89 204.474 149.205 204.789 149.625 205.209 149.415 205.63 149.205 206.155 148.995 206.575 148.68 207.101 148.364 208.257 147.629 209.307 147.629 210.568 148.154 214.666 149.941 216.873 153.408 216.873 157.926 217.083 162.865 214.771 166.332 210.673 168.118ZM225.594 165.807C225.068 167.908 224.018 169.694 221.916 170.64 221.181 170.955 220.445 171.165 219.71 171.06 218.869 170.955 218.449 170.64 218.659 169.8 218.764 169.169 218.974 168.644 219.184 168.013 219.5 167.173 219.815 166.437 220.235 165.597 221.181 163.915 221.706 162.129 221.601 160.133 221.601 158.031 221.811 155.93 221.391 153.828 221.181 152.778 220.865 151.832 220.34 150.991 219.71 149.73 218.974 148.47 218.659 146.998 218.344 145.527 218.659 145.107 220.13 145.212 222.442 145.422 224.018 146.788 224.963 148.995 225.699 150.676 225.909 152.462 226.119 154.249 226.224 155.509 226.434 156.665 226.224 157.926 226.539 160.763 226.224 163.285 225.594 165.807ZM235.471 149.1C236.311 151.201 236.732 153.513 236.732 155.825 236.732 156.665 236.732 157.506 236.732 158.662 236.837 161.078 236.521 163.915 235.786 166.647 235.156 168.749 233.79 170.22 231.793 170.955 230.953 171.271 230.007 171.481 229.376 170.85 228.746 170.22 229.166 169.379 229.482 168.644 229.902 167.593 230.322 166.542 230.848 165.597 231.688 164.02 232.213 162.234 232.108 160.448 232.108 158.346 232.319 156.245 231.898 154.144 231.688 153.093 231.373 152.147 230.953 151.307 230.322 150.046 229.587 148.785 229.271 147.419 228.851 145.843 229.271 145.317 230.848 145.527 233.054 145.738 234.63 146.998 235.471 149.1Z" fill="#F2F2F2" transform="matrix(1 0 0 1.00277 63.4647 27.181)"/><path d="M158.241 258.692C155.825 258.692 153.303 260.478 153.093 263.736 152.988 266.573 155.404 268.884 158.241 268.884 160.973 268.884 163.285 266.573 163.39 263.736 163.39 261.004 161.078 258.692 158.241 258.692Z" fill="#F2F2F2" transform="matrix(1 0 0 1.00277 63.4647 27.181)"/><path d="M53.7979 163.39C56.6349 163.39 58.8414 161.078 58.8414 158.346 58.8414 155.509 56.5298 153.093 53.6928 153.198 50.8558 153.198 48.6492 155.509 48.5442 158.241 48.5442 161.078 50.9609 163.495 53.7979 163.39Z" fill="#F2F2F2" transform="matrix(1 0 0 1.00277 63.4647 27.181)"/><path d="M158.346 57.8958C161.183 57.8958 163.39 55.5841 163.39 52.8522 163.39 50.0152 161.078 47.7036 158.241 47.7036 155.404 47.7036 153.093 50.0152 153.093 52.7471 153.093 55.5841 155.404 57.8958 158.346 57.8958Z" fill="#F2F2F2" transform="matrix(1 0 0 1.00277 63.4647 27.181)"/><path d="M262.79 153.198C259.953 153.198 257.746 155.509 257.641 158.241 257.641 161.078 259.953 163.495 262.79 163.39 265.627 163.39 267.834 161.183 267.834 158.346 268.044 156.035 266.047 153.198 262.79 153.198Z" fill="#F2F2F2" transform="matrix(1 0 0 1.00277 63.4647 27.181)"/><path d="M158.241 150.571C154.038 150.571 150.571 154.038 150.571 158.241 150.571 162.549 154.038 165.912 158.241 165.912 162.444 165.912 165.912 162.444 166.017 158.241 166.017 154.038 162.444 150.571 158.241 150.571Z" fill="#F2F2F2" transform="matrix(1 0 0 1.00277 63.4647 27.181)"/></g></g></g></g></svg>